<svg xmlns="http://www.w3.org/2000/svg" viewBox="0 0 24 24">
  <path d="M11.998,24c-0.321,0-0.641-0.084-0.922-0.247l-2.936-1.737c-0.438-0.245-0.224-0.332-0.08-0.383 c0.585-0.203,0.703-0.25,1.328-0.604c0.065-0.037,0.151-0.023,0.218,0.017l2.256,1.339c0.082,0.045,0.197,0.045,0.272,0l8.795-5.076 c0.082-0.047,0.134-0.141,0.134-0.238V6.921c0-0.099-0.053-0.192-0.137-0.242l-8.791-5.072c-0.081-0.047-0.192-0.047-0.274,0 L3.075,6.68C2.99,6.729,2.936,6.825,2.936,6.921v10.15c0,0.097,0.054,0.189,0.139,0.235l2.409,1.392 c1.307,0.654,2.108-0.116,2.108-0.89V7.787c0-0.142,0.114-0.253,0.256-0.253h1.115c0.139,0,0.255,0.112,0.255,0.253v10.021 c0,1.745-0.95,2.745-2.604,2.745c-0.508,0-0.909,0-2.026-0.551L2.28,18.675c-0.57-0.329-0.922-0.945-0.922-1.604V6.921 c0-0.659,0.353-1.275,0.922-1.603l8.795-5.082c0.557-0.315,1.296-0.315,1.848,0l8.794,5.082c0.57,0.329,0.924,0.944,0.924,1.603 v10.15c0,0.659-0.354,1.265-0.924,1.604l-8.794,5.078C12.643,23.916,12.324,24,11.998,24z M19.099,13.993 c0-1.9-1.284-2.406-3.987-2.763c-2.731-0.361-3.009-0.548-3.009-1.187c0-0.528,0.235-1.233,2.258-1.233 c1.807,0,2.473,0.389,2.747,0.607c0.124,0.095,0.318,0.095,0.442,0l0.825-0.486c0.1-0.059,0.162-0.162,0.162-0.292 c0-0.163-0.084-0.31-0.211-0.396c-0.351-0.242-1.086-0.561-2.895-0.561c-0.01,0-0.019,0-0.029,0 c-0.01,0-0.019,0-0.029,0c-3.477,0-4.616,1.641-4.616,3.443c0,2.014,1.319,2.735,4.046,3.075c2.882,0.361,3.19,0.703,3.19,1.33 c0,0.981-0.789,1.402-2.642,1.402c-2.327,0-2.938-0.584-3.193-0.876c-0.11-0.125-0.285-0.125-0.395,0l-0.9,0.52 c-0.11,0.064-0.172,0.18-0.172,0.3c0,0.195,0.104,0.365,0.273,0.462c0.539,0.312,1.544,0.644,3.564,0.727v0.003 c0.024,0.002,0.047,0.002,0.071,0.002c0.024,0,0.047,0,0.071-0.002c3.778,0,5.304-1.508,5.304-3.977H19.099z" fill="#339933"/>
</svg>
