<svg xmlns="http://www.w3.org/2000/svg" viewBox="0 0 24 24" fill="none">
  <path d="M11.5725 0c-.1763 0-.3125.1362-.3125.3125v23.375c0 .1763.1362.3125.3125.3125h.855c.1763 0 .3125-.1362.3125-.3125V.3125C12.74.1362 12.6038 0 12.4275 0h-.855z" fill="#000"/>
  <path d="M23.625 11.9792c0 5.4609-4.005 9.9792-9.1875 10.5938-.1763.0208-.3125-.1115-.3125-.2917v-.8437c0-.1459.1115-.2709.2563-.2917 4.326-.5208 7.7312-4.1875 7.7312-8.5729 0-4.7708-3.9375-8.7083-8.7083-8.7083-4.7709 0-8.7084 3.9375-8.7084 8.7083 0 4.3854 3.4052 8.0521 7.7313 8.5729.1448.0208.2562.1458.2562.2917v.8437c0 .1802-.1362.3125-.3125.2917C4.3805 21.9584.3755 17.44.3755 11.9792.3755 5.9375 5.3125 1 11.3542 1c6.0416 0 10.9786 4.9375 10.9786 10.9792h-.7073z" fill="#000"/>
</svg>
